<?xml version="1.0" encoding="iso-8859-1"?>
<!-- Generator: Adobe Illustrator 17.1.0, SVG Export Plug-In . SVG Version: 6.00 Build 0)  -->
<!DOCTYPE svg PUBLIC "-//W3C//DTD SVG 1.1//EN" "http://www.w3.org/Graphics/SVG/1.1/DTD/svg11.dtd">
<svg version="1.1" id="Capa_1" xmlns="http://www.w3.org/2000/svg" xmlns:xlink="http://www.w3.org/1999/xlink" x="0px" y="0px"
	 viewBox="0 0 190.498 190.498" style="enable-background:new 0 0 190.498 190.498;" xml:space="preserve">
<g>
	<path d="M101.812,18.479l5.611,3.481l-1.898-6.324C102.98,7.161,98.341,0,95.394,0c-2.72,0-7.548,6.26-10.402,15.578l-1.935,6.317
		l5.632-3.454C92.815,15.91,97.694,15.927,101.812,18.479z"/>
	<path d="M143.464,115.465c-18.766-12.816-33.201-57.365-33.345-57.813l-0.46-1.437l-0.007-4.633l-0.013,0.013
		c-0.001-0.603-0.001-0.954-0.001-0.992c0-9.227-1.095-17.552-3.253-24.744l-0.272-0.907l-0.805-0.499
		c-3.1-1.922-6.59-2.938-10.092-2.938c-3.469,0-6.927,0.996-10.002,2.882l-0.807,0.494l-0.277,0.904
		c-2.227,7.274-3.59,15.889-3.678,25.601l-0.214-0.012v0.808c0,0.126,0.196,0.248,0.196,0.375l0.104,4.212l-0.233,0.889
		c-0.143,0.448-14.499,45.011-33.264,57.827c-12.957,8.849-18.278,23.403-15.005,40.926c0.039,0.21,0.078,0.442,0.099,0.571
		c0.428,2.57,2.581,3.493,15.164,3.493c0.001,0,0.001,0,0.001,0c11.504,0,27.638-0.919,33.421-1.272l0.003,3.872
		c-0.462,0.25-0.896,0.586-1.24,1.029l-8.023,10.229c-0.74,0.947-1.151,2.379-1.022,3.563l1.072,9.854
		c0.17,1.588,1.376,2.74,2.868,2.74c0.8,0,1.581-0.341,2.201-0.962l8.556-8.573c0.027-0.014,0.063-0.029,0.093-0.039l19.469-0.039
		c0.028,0.01,0.063,0.024,0.09,0.037l8.627,8.612c0.616,0.615,1.396,0.954,2.193,0.954c1.492,0,2.7-1.152,2.873-2.742l1.072-9.871
		c0.129-1.184-0.271-2.57-1.025-3.537l-8.018-10.221c-0.204-0.261-0.442-0.479-0.694-0.671l-0.006-4.365
		c5.83,0.325,21.911,1.158,33.388,1.158c12.589,0,14.736-0.8,15.165-3.37c0.021-0.13,0.055-0.304,0.095-0.518
		C161.739,138.83,156.414,124.309,143.464,115.465z M95.293,62.304c-4.082,0-7.392-7.417-7.392-16.565
		c0-9.149,3.309-16.565,7.392-16.565s7.392,7.417,7.392,16.565C102.685,54.887,99.376,62.304,95.293,62.304z"/>
</g>
<g>
</g>
<g>
</g>
<g>
</g>
<g>
</g>
<g>
</g>
<g>
</g>
<g>
</g>
<g>
</g>
<g>
</g>
<g>
</g>
<g>
</g>
<g>
</g>
<g>
</g>
<g>
</g>
<g>
</g>
</svg>
